<mxfile host="app.diagrams.net" modified="2022-11-21T01:36:51.882Z" agent="5.0 (Windows NT 10.0; Win64; x64) AppleWebKit/537.36 (KHTML, like Gecko) Chrome/107.0.0.0 Safari/537.36 Edg/107.0.1418.42" etag="-ve19fntB_MkWNqxXCPr" version="20.5.3" type="github">
  <diagram id="U1FMwSItcwg7t5gCMyaE" name="第 1 页">
    <mxGraphModel dx="1422" dy="778" grid="1" gridSize="10" guides="1" tooltips="1" connect="1" arrows="1" fold="1" page="1" pageScale="1" pageWidth="827" pageHeight="1169" math="0" shadow="0">
      <root>
        <mxCell id="0" />
        <mxCell id="1" parent="0" />
        <mxCell id="3LiQr8wCGCh7OgG0KYY2-1" value="&lt;font style=&quot;font-size: 14px;&quot;&gt;数据源平台&lt;/font&gt;" style="rounded=0;whiteSpace=wrap;html=1;align=right;" parent="1" vertex="1">
          <mxGeometry x="282" y="210" width="368" height="90" as="geometry" />
        </mxCell>
        <mxCell id="3LiQr8wCGCh7OgG0KYY2-3" value="&lt;font style=&quot;font-size: 14px;&quot;&gt;转发平台&lt;/font&gt;" style="rounded=0;whiteSpace=wrap;html=1;align=right;" parent="1" vertex="1">
          <mxGeometry x="282" y="400" width="368" height="190" as="geometry" />
        </mxCell>
        <mxCell id="3LiQr8wCGCh7OgG0KYY2-15" value="&lt;font style=&quot;font-size: 14px;&quot;&gt;其他平台&lt;/font&gt;" style="rounded=0;whiteSpace=wrap;html=1;" parent="1" vertex="1">
          <mxGeometry x="282" y="660" width="368" height="60" as="geometry" />
        </mxCell>
        <mxCell id="3LiQr8wCGCh7OgG0KYY2-18" value="" style="endArrow=classic;html=1;rounded=0;fillColor=#fff2cc;strokeColor=#00CC00;exitX=0.5;exitY=1;exitDx=0;exitDy=0;" parent="1" source="L51531q8kxPah6j-Oe_d-31" edge="1">
          <mxGeometry width="50" height="50" relative="1" as="geometry">
            <mxPoint x="402" y="610" as="sourcePoint" />
            <mxPoint x="402" y="660" as="targetPoint" />
            <Array as="points" />
          </mxGeometry>
        </mxCell>
        <mxCell id="3LiQr8wCGCh7OgG0KYY2-19" value="上报" style="edgeLabel;html=1;align=center;verticalAlign=middle;resizable=0;points=[];" parent="3LiQr8wCGCh7OgG0KYY2-18" vertex="1" connectable="0">
          <mxGeometry x="-0.2997" relative="1" as="geometry">
            <mxPoint as="offset" />
          </mxGeometry>
        </mxCell>
        <mxCell id="3LiQr8wCGCh7OgG0KYY2-20" value="设备告警信息" style="text;html=1;strokeColor=#6c8ebf;fillColor=#dae8fc;align=center;verticalAlign=middle;whiteSpace=wrap;rounded=0;dashed=1;" parent="1" vertex="1">
          <mxGeometry x="300" y="420" width="100" height="80" as="geometry" />
        </mxCell>
        <mxCell id="L51531q8kxPah6j-Oe_d-1" value="&lt;font color=&quot;#d79b00&quot;&gt;新告警、状态变更&lt;/font&gt;" style="text;html=1;strokeColor=none;fillColor=none;align=center;verticalAlign=middle;whiteSpace=wrap;rounded=0;" parent="1" vertex="1">
          <mxGeometry x="295" y="268" width="60" height="30" as="geometry" />
        </mxCell>
        <mxCell id="L51531q8kxPah6j-Oe_d-4" value="设备配置信息" style="text;html=1;strokeColor=#6c8ebf;fillColor=#dae8fc;align=center;verticalAlign=middle;whiteSpace=wrap;rounded=0;dashed=1;" parent="1" vertex="1">
          <mxGeometry x="400" y="420" width="100" height="80" as="geometry" />
        </mxCell>
        <mxCell id="L51531q8kxPah6j-Oe_d-5" value="&lt;font color=&quot;#d79b00&quot; style=&quot;font-size: 12px;&quot;&gt;信息更改&lt;/font&gt;" style="text;html=1;strokeColor=none;fillColor=none;align=center;verticalAlign=middle;whiteSpace=wrap;rounded=0;fontSize=14;" parent="1" vertex="1">
          <mxGeometry x="451" y="269" width="60" height="30" as="geometry" />
        </mxCell>
        <mxCell id="L51531q8kxPah6j-Oe_d-14" value="" style="endArrow=classic;html=1;rounded=0;fontSize=14;exitX=0.5;exitY=1;exitDx=0;exitDy=0;fillColor=#ffe6cc;strokeColor=#D79B00;entryX=0.905;entryY=0.1;entryDx=0;entryDy=0;entryPerimeter=0;" parent="1" source="L51531q8kxPah6j-Oe_d-5" edge="1" target="L5IBE3fPtycGPXChamNv-1">
          <mxGeometry width="50" height="50" relative="1" as="geometry">
            <mxPoint x="491" y="299" as="sourcePoint" />
            <mxPoint x="491" y="420" as="targetPoint" />
          </mxGeometry>
        </mxCell>
        <mxCell id="L51531q8kxPah6j-Oe_d-19" value="&lt;font color=&quot;#d79b00&quot;&gt;主动更新&lt;/font&gt;" style="edgeLabel;html=1;align=center;verticalAlign=middle;resizable=0;points=[];fontSize=14;" parent="L51531q8kxPah6j-Oe_d-14" vertex="1" connectable="0">
          <mxGeometry x="-0.3061" y="2" relative="1" as="geometry">
            <mxPoint as="offset" />
          </mxGeometry>
        </mxCell>
        <mxCell id="L51531q8kxPah6j-Oe_d-21" value="" style="endArrow=classic;html=1;rounded=0;fontSize=12;exitX=0.5;exitY=0;exitDx=0;exitDy=0;entryX=0.5;entryY=1;entryDx=0;entryDy=0;" parent="1" source="L5IBE3fPtycGPXChamNv-1" target="L51531q8kxPah6j-Oe_d-48" edge="1">
          <mxGeometry width="50" height="50" relative="1" as="geometry">
            <mxPoint x="242" y="460" as="sourcePoint" />
            <mxPoint x="640" y="340" as="targetPoint" />
          </mxGeometry>
        </mxCell>
        <mxCell id="L51531q8kxPah6j-Oe_d-38" value="&lt;font color=&quot;#000000&quot;&gt;定时查询&lt;/font&gt;" style="edgeLabel;html=1;align=center;verticalAlign=middle;resizable=0;points=[];fontSize=12;fontColor=#D79B00;" parent="L51531q8kxPah6j-Oe_d-21" vertex="1" connectable="0">
          <mxGeometry x="-0.3558" y="-2" relative="1" as="geometry">
            <mxPoint as="offset" />
          </mxGeometry>
        </mxCell>
        <mxCell id="L51531q8kxPah6j-Oe_d-24" value="" style="endArrow=classic;html=1;rounded=0;fontSize=14;fillColor=#ffe6cc;strokeColor=#d79b00;exitX=0.117;exitY=1;exitDx=0;exitDy=0;startArrow=none;exitPerimeter=0;entryX=0.125;entryY=-0.05;entryDx=0;entryDy=0;entryPerimeter=0;" parent="1" source="3LiQr8wCGCh7OgG0KYY2-1" target="L5IBE3fPtycGPXChamNv-1" edge="1">
          <mxGeometry width="50" height="50" relative="1" as="geometry">
            <mxPoint x="354.5" y="340" as="sourcePoint" />
            <mxPoint x="264.5" y="380" as="targetPoint" />
          </mxGeometry>
        </mxCell>
        <mxCell id="L51531q8kxPah6j-Oe_d-57" value="&lt;span style=&quot;color: rgb(215, 155, 0); font-size: 14px;&quot;&gt;主动更新&lt;/span&gt;" style="edgeLabel;html=1;align=center;verticalAlign=middle;resizable=0;points=[];fontSize=12;fontColor=#000000;" parent="L51531q8kxPah6j-Oe_d-24" vertex="1" connectable="0">
          <mxGeometry x="0.2295" relative="1" as="geometry">
            <mxPoint as="offset" />
          </mxGeometry>
        </mxCell>
        <mxCell id="L51531q8kxPah6j-Oe_d-26" value="定时任务" style="text;html=1;strokeColor=#82b366;fillColor=#d5e8d4;align=center;verticalAlign=middle;whiteSpace=wrap;rounded=0;fontSize=12;" parent="1" vertex="1">
          <mxGeometry x="372" y="500" width="60" height="20" as="geometry" />
        </mxCell>
        <mxCell id="L51531q8kxPah6j-Oe_d-28" value="" style="endArrow=classic;html=1;rounded=0;strokeColor=#00CC00;fontSize=12;exitX=0.5;exitY=1;exitDx=0;exitDy=0;" parent="1" source="L51531q8kxPah6j-Oe_d-26" target="L51531q8kxPah6j-Oe_d-31" edge="1">
          <mxGeometry width="50" height="50" relative="1" as="geometry">
            <mxPoint x="492" y="530" as="sourcePoint" />
            <mxPoint x="542" y="480" as="targetPoint" />
          </mxGeometry>
        </mxCell>
        <mxCell id="L51531q8kxPah6j-Oe_d-31" value="消息格式处理" style="text;html=1;strokeColor=#82b366;fillColor=#d5e8d4;align=center;verticalAlign=middle;whiteSpace=wrap;rounded=0;fontSize=12;" parent="1" vertex="1">
          <mxGeometry x="372" y="559" width="60" height="30" as="geometry" />
        </mxCell>
        <mxCell id="L51531q8kxPah6j-Oe_d-33" value="" style="endArrow=classic;html=1;rounded=0;fontSize=14;fillColor=#ffe6cc;strokeColor=#d79b00;exitX=0.25;exitY=0;exitDx=0;exitDy=0;entryX=0;entryY=0.5;entryDx=0;entryDy=0;" parent="1" source="3LiQr8wCGCh7OgG0KYY2-20" target="L51531q8kxPah6j-Oe_d-31" edge="1">
          <mxGeometry width="50" height="50" relative="1" as="geometry">
            <mxPoint x="328.5" y="420" as="sourcePoint" />
            <mxPoint x="327.5" y="542" as="targetPoint" />
            <Array as="points">
              <mxPoint x="325" y="574" />
            </Array>
          </mxGeometry>
        </mxCell>
        <mxCell id="L51531q8kxPah6j-Oe_d-36" value="" style="endArrow=classic;html=1;rounded=0;fontSize=14;exitX=0.915;exitY=1.1;exitDx=0;exitDy=0;fillColor=#ffe6cc;strokeColor=#d79b00;entryX=1;entryY=0.5;entryDx=0;entryDy=0;exitPerimeter=0;" parent="1" edge="1" source="L5IBE3fPtycGPXChamNv-1">
          <mxGeometry width="50" height="50" relative="1" as="geometry">
            <mxPoint x="490" y="414" as="sourcePoint" />
            <mxPoint x="432" y="570" as="targetPoint" />
            <Array as="points">
              <mxPoint x="483" y="570" />
            </Array>
          </mxGeometry>
        </mxCell>
        <mxCell id="L51531q8kxPah6j-Oe_d-39" value="&lt;div style=&quot;text-align: center;&quot;&gt;&lt;span style=&quot;background-color: rgb(255, 255, 255);&quot;&gt;转发平台可定时发送消息，查询设备的实时信息&lt;/span&gt;&lt;/div&gt;" style="text;whiteSpace=wrap;html=1;fontSize=12;fontColor=#000000;" parent="1" vertex="1">
          <mxGeometry x="92" y="290" width="170" height="40" as="geometry" />
        </mxCell>
        <mxCell id="L51531q8kxPah6j-Oe_d-44" value="" style="endArrow=none;dashed=1;html=1;rounded=0;strokeColor=#000000;fontSize=12;fontColor=#000000;" parent="1" source="L51531q8kxPah6j-Oe_d-39" edge="1">
          <mxGeometry width="50" height="50" relative="1" as="geometry">
            <mxPoint x="90" y="460" as="sourcePoint" />
            <mxPoint x="400" y="310" as="targetPoint" />
          </mxGeometry>
        </mxCell>
        <mxCell id="L51531q8kxPah6j-Oe_d-45" value="&lt;font color=&quot;#d79b00&quot;&gt;源平台的设备信息有更改、有新告警时，可主动发送更新信息至MQ&lt;/font&gt;" style="text;html=1;strokeColor=none;fillColor=none;align=center;verticalAlign=middle;whiteSpace=wrap;rounded=0;dashed=1;fontSize=12;fontColor=#000000;" parent="1" vertex="1">
          <mxGeometry x="90.5" y="350" width="180" height="50" as="geometry" />
        </mxCell>
        <mxCell id="L51531q8kxPah6j-Oe_d-46" value="" style="endArrow=none;dashed=1;html=1;rounded=0;strokeColor=#D79B00;fontSize=12;fontColor=#D79B00;exitX=1;exitY=0.5;exitDx=0;exitDy=0;" parent="1" source="L51531q8kxPah6j-Oe_d-45" edge="1">
          <mxGeometry width="50" height="50" relative="1" as="geometry">
            <mxPoint x="232" y="390" as="sourcePoint" />
            <mxPoint x="310" y="375" as="targetPoint" />
          </mxGeometry>
        </mxCell>
        <mxCell id="L51531q8kxPah6j-Oe_d-48" value="&lt;font color=&quot;#000000&quot;&gt;设备信息&lt;/font&gt;" style="text;html=1;strokeColor=none;fillColor=none;align=center;verticalAlign=middle;whiteSpace=wrap;rounded=0;dashed=1;fontSize=12;fontColor=#D79B00;" parent="1" vertex="1">
          <mxGeometry x="370" y="270" width="60" height="30" as="geometry" />
        </mxCell>
        <mxCell id="L51531q8kxPah6j-Oe_d-51" value="&lt;font color=&quot;#82b366&quot;&gt;转发平台上，针对不同的目标平台，对上报数据做对应的格式转换，并通过对应的传输协议进行上报&lt;/font&gt;" style="text;html=1;strokeColor=none;fillColor=none;align=center;verticalAlign=middle;whiteSpace=wrap;rounded=0;dashed=1;fontSize=12;fontColor=#000000;" parent="1" vertex="1">
          <mxGeometry x="89.5" y="543.5" width="175" height="61" as="geometry" />
        </mxCell>
        <mxCell id="L51531q8kxPah6j-Oe_d-52" value="" style="endArrow=none;dashed=1;html=1;rounded=0;strokeColor=#82B366;fontSize=12;fontColor=#82B366;" parent="1" source="L51531q8kxPah6j-Oe_d-51" target="L51531q8kxPah6j-Oe_d-31" edge="1">
          <mxGeometry width="50" height="50" relative="1" as="geometry">
            <mxPoint x="240" y="640" as="sourcePoint" />
            <mxPoint x="290" y="590" as="targetPoint" />
          </mxGeometry>
        </mxCell>
        <mxCell id="L51531q8kxPah6j-Oe_d-53" value="&lt;font color=&quot;#000000&quot;&gt;转发设备列表&lt;/font&gt;" style="rounded=0;whiteSpace=wrap;html=1;dashed=1;fontSize=12;fontColor=#D79B00;" parent="1" vertex="1">
          <mxGeometry x="540" y="400" width="80" height="20" as="geometry" />
        </mxCell>
        <mxCell id="L51531q8kxPah6j-Oe_d-58" value="" style="endArrow=classic;html=1;rounded=0;strokeColor=#000000;fontSize=12;fontColor=#000000;exitX=0;exitY=0.5;exitDx=0;exitDy=0;dashed=1;dashPattern=1 4;" parent="1" source="L51531q8kxPah6j-Oe_d-53" edge="1">
          <mxGeometry width="50" height="50" relative="1" as="geometry">
            <mxPoint x="570" y="510" as="sourcePoint" />
            <mxPoint x="432" y="410" as="targetPoint" />
          </mxGeometry>
        </mxCell>
        <mxCell id="L5IBE3fPtycGPXChamNv-1" value="消息队列" style="text;html=1;strokeColor=#82b366;fillColor=#d5e8d4;align=center;verticalAlign=middle;whiteSpace=wrap;rounded=0;fontSize=12;" vertex="1" parent="1">
          <mxGeometry x="300" y="400" width="200" height="20" as="geometry" />
        </mxCell>
      </root>
    </mxGraphModel>
  </diagram>
</mxfile>
